<svg id="Layer_1" data-name="Layer 1" xmlns="http://www.w3.org/2000/svg" viewBox="0 0 795 868"><defs><style>.cls-1{fill:#fff3d1;}.cls-2{fill:#17e8ff;}.cls-10,.cls-2,.cls-5,.cls-6,.cls-9{stroke:#000;}.cls-10,.cls-2,.cls-5,.cls-6,.cls-7,.cls-8,.cls-9{stroke-miterlimit:10;}.cls-3{font-size:48px;fill:#fff;font-family:Calibri, Calibri;}.cls-4,.cls-8{fill:red;}.cls-5{fill:none;}.cls-6{fill:#ff0006;}.cls-6,.cls-9{fill-rule:evenodd;}.cls-7,.cls-8{font-size:100px;font-family:Wingdings2, Wingdings 2;}.cls-7{fill:lime;stroke:#39b54a;}.cls-8{stroke:#d4145a;}.cls-9{fill:#ff8500;}.cls-10{fill:#00c90a;}</style></defs><title>ArbreDecision</title><rect class="cls-1" x="343.5" y="115.5" width="296" height="130" rx="11.5" ry="11.5"/><path d="M849,158a11,11,0,0,1,11,11V276a11,11,0,0,1-11,11H576a11,11,0,0,1-11-11V169a11,11,0,0,1,11-11H849m0-1H576a12,12,0,0,0-12,12V276a12,12,0,0,0,12,12H849a12,12,0,0,0,12-12V169a12,12,0,0,0-12-12Z" transform="translate(-221 -42)"/><circle class="cls-2" cx="492" cy="51" r="50.5"/><text class="cls-3" transform="translate(480.88 64)">?</text><path class="cls-4" d="M734.29,273c-.55-.49-1.29-.44-1.93-.72-3-1.32-4.5-3.78-5.44-6.71a24.57,24.57,0,0,1-1-6.6c-.14-3.34.22-6.71-.5-10A29.74,29.74,0,0,0,721,238.78a11.42,11.42,0,0,0-11.79-4.53c-4.21,1-6.64,4.45-6.68,9.66,0,2.27.37,4.53-.06,6.8a10.41,10.41,0,0,1-2.72,5.73c-1.45,1.42-3.17,2.16-5.19,1.34a5,5,0,0,1-3.19-4.62c-.2-2.56.89-4.67,2.31-6.65a80.47,80.47,0,0,0,6.3-9.94,24.55,24.55,0,0,0,2.71-7.67,5.39,5.39,0,0,0-.34-2.79,2.73,2.73,0,0,0-2.57-1.82,9.26,9.26,0,0,0-4.88,1.17,31.09,31.09,0,0,0-10.14,8.59,44.18,44.18,0,0,0-4.53,6.8,17.24,17.24,0,0,1-3.57,4.73c-5.13,4.6-12.19,2.52-14-4.15a9,9,0,0,1,1.43-7.54,12.94,12.94,0,0,1,8.23-5.53,43.33,43.33,0,0,0,15.15-6.54,32.21,32.21,0,0,0,8-7.72c6-8.71,3.23-20.09-9.23-22.78-3-.64-6-.84-9.06-1.29a11.62,11.62,0,0,1-4.07-1.46,8.29,8.29,0,0,1-4.56-7.19c-.15-3.6,2.38-5.89,6-5.53a9.09,9.09,0,0,1,4.26,1.55,107.79,107.79,0,0,1,9,7.35,45.16,45.16,0,0,0,7.09,5.2c.8.44,1.79,1.25,2.59.45s-.09-1.69-.47-2.46a20.44,20.44,0,0,0-2.58-3.63,16.57,16.57,0,0,1-3.66-7.75c-.73-4.36,2.36-8,6.4-7.52a5.78,5.78,0,0,1,4,2.44c1.57,2,2,4.48,2.52,6.91a18.84,18.84,0,0,0,3.22,7.7c1.77,2.39,4.11,2.95,6.8,2.43a9,9,0,0,0,7.17-6.46c.39-1.17.61-2.42,1.11-3.54a7.3,7.3,0,0,1,6.16-4.74,4.38,4.38,0,0,1,4.5,2.27c.92,1.62.29,3.15-.75,4.48s-2.27,2.63-3.4,3.95a13.51,13.51,0,0,0-3.24,5.49,2.53,2.53,0,0,0,2.49,3.41A6.38,6.38,0,0,0,733,191a43.73,43.73,0,0,0,5.35-7.74c1.52-2.65,3-5.31,4.6-7.93a7.16,7.16,0,0,1,4.75-3.52c5-1.07,8.73,3.08,7.23,8a12.72,12.72,0,0,1-4.2,5.86c-3.62,3.14-7.85,5.35-12,7.74a7.18,7.18,0,0,0-3.7,5.56,4.7,4.7,0,0,0,0,1.35c.22,1.33.53,2.7,2,3.19a4.1,4.1,0,0,0,4.13-1c1.67-1.42,3-3.22,4.5-4.78,1.89-1.92,3.94-3.34,6.86-3.08,3.56.32,5.43,3.22,4,6.52a10.53,10.53,0,0,1-5.31,5.17,25.35,25.35,0,0,1-4.79,1.65,11.31,11.31,0,0,0-1.64.56c-2.28,1.05-2.94,2.83-1.8,5.08a20.49,20.49,0,0,0,5.44,6.21c4.17,3.48,9.15,5.39,14.18,7.18l6,2.08c2.83,1,5.13,2.62,6.33,5.51v1a3.92,3.92,0,0,0-.29.53c-.7,1.75-1.46,2.17-3.33,2a13.7,13.7,0,0,1-5.54-2,46.79,46.79,0,0,1-6.33-5c-3.81-3.26-7.71-6.4-12.54-8.05-2-.67-4-1.26-6.18-.74-1.44.35-2.72,1-3,2.57s.69,2.73,1.91,3.62a14.78,14.78,0,0,0,3.58,1.66,14.09,14.09,0,0,1,4,1.93c1.75,1.44,2.71,3.22,2.13,5.55a6,6,0,0,1-4.51,4.79c-2.57.65-4.24-.85-5.63-2.73a60.57,60.57,0,0,1-3.6-6.07,15.59,15.59,0,0,0-3.64-4.66c-1.68-1.32-3.6-2.38-5.69-1.25s-2.27,3.3-2.1,5.44a16.12,16.12,0,0,0,4.34,9.52c2.86,3.25,6.45,5.67,9.67,8.51,2.41,2.11,4.62,4.39,5.78,7.47,2.43,6.47-.84,12.59-7.57,14.14a2.25,2.25,0,0,0-.41.25Zm7.87-11.53a8.81,8.81,0,0,0-2.24-5.26c-2.91-3.44-6.25-6.47-9.43-9.65a3.31,3.31,0,0,0-.27-.26.73.73,0,0,0-.92-.05c-.42.32,0,.61.16.82a20.56,20.56,0,0,0,2.62,3,15.64,15.64,0,0,1,3.22,4.05,17.82,17.82,0,0,1,2.46,9.84,1.7,1.7,0,0,0,1.33,2,2,2,0,0,0,2.36-1.16A7.65,7.65,0,0,0,742.16,261.47Zm-76.32-23.54a3.75,3.75,0,0,0,.4,1.71,1.78,1.78,0,0,0,1.79,1.09,1.66,1.66,0,0,0,1.51-1.27c1.82-5.21,5.6-8.45,10.57-10.46a23,23,0,0,0,3.68-1.76c.22-.15.66-.2.52-.58a.72.72,0,0,0-.93-.39,4.1,4.1,0,0,0-.59.2c-4,1.65-8.07,3-11.91,4.92C668.09,232.81,666.16,234.84,665.84,237.93Zm87.57-58.21c-.14-1-.16-2.13-1.43-2.46a1.79,1.79,0,0,0-2,1.46c-.82,3.93-3.38,6.5-6.65,8.51-1.27.77-2.59,1.46-3.88,2.2-.28.16-.61.41-.4.79s.59.14.87,0c3.51-1.84,7.23-3.27,10.49-5.58A6.57,6.57,0,0,0,753.41,179.72ZM683.79,190l3.15.27a.61.61,0,0,0,.69-.4c.1-.44-.31-.42-.56-.47a15.23,15.23,0,0,0-2.18-.42,14.62,14.62,0,0,1-11-5.89c-.54-.72-1.18-1.19-2.11-.72a1.88,1.88,0,0,0-.72,2.47,6.28,6.28,0,0,0,4.84,4A44.79,44.79,0,0,0,683.79,190Z" transform="translate(-221 -42)"/><path class="cls-4" d="M679.51,219.4c-3,.76-6.06,1.55-9.1,2.26-4,.93-7.84,2.3-11.76,3.44a8.27,8.27,0,0,1-3.57.14,4.58,4.58,0,0,1-3.41-6.77,8,8,0,0,1,8.2-3.93,24.24,24.24,0,0,1,5.55,1.69,33.52,33.52,0,0,0,12.5,2.77,13.9,13.9,0,0,1,1.56.21Zm-12.13-.46c-1.16-.69-2.08-1.31-3.06-1.83-1.86-1-3.71-2-5.92-2a5.41,5.41,0,0,0-4.27,1.91,1.53,1.53,0,0,0-.18,2,1.48,1.48,0,0,0,1.76.54c.36-.1.71-.21,1.06-.34a15.28,15.28,0,0,1,8.42-.47A4.12,4.12,0,0,0,667.38,218.94Z" transform="translate(-221 -42)"/><text class="cls-3" transform="translate(480.88 184)">?</text><line class="cls-5" x1="492.5" y1="256.5" x2="639.5" y2="412.5"/><line class="cls-5" x1="350.5" y1="406.5" x2="492.5" y2="256.5"/><rect class="cls-1" x="498.5" y="423.5" width="296" height="130" rx="11.5" ry="11.5"/><path d="M1004,466a11,11,0,0,1,11,11V584a11,11,0,0,1-11,11H731a11,11,0,0,1-11-11V477a11,11,0,0,1,11-11h273m0-1H731a12,12,0,0,0-12,12V584a12,12,0,0,0,12,12h273a12,12,0,0,0,12-12V477a12,12,0,0,0-12-12Z" transform="translate(-221 -42)"/><polygon class="cls-6" points="643.33 441.5 584.89 542.72 701.76 542.72 643.33 441.5"/><path class="cls-4" d="M882.29,411c-.55-.49-1.29-.44-1.93-.72-3-1.32-4.5-3.78-5.44-6.71a24.57,24.57,0,0,1-1-6.6c-.14-3.34.22-6.71-.5-10A29.74,29.74,0,0,0,869,376.78a11.42,11.42,0,0,0-11.79-4.53c-4.21,1-6.64,4.45-6.68,9.66,0,2.27.37,4.53-.06,6.8a10.41,10.41,0,0,1-2.72,5.73c-1.45,1.42-3.17,2.16-5.19,1.34a5,5,0,0,1-3.19-4.62c-.2-2.56.89-4.67,2.31-6.65a80.47,80.47,0,0,0,6.3-9.94,24.55,24.55,0,0,0,2.71-7.67,5.39,5.39,0,0,0-.34-2.79,2.73,2.73,0,0,0-2.57-1.82,9.26,9.26,0,0,0-4.88,1.17,31.09,31.09,0,0,0-10.14,8.59,44.18,44.18,0,0,0-4.53,6.8,17.24,17.24,0,0,1-3.57,4.73c-5.13,4.6-12.19,2.52-14-4.15a9,9,0,0,1,1.43-7.54,12.94,12.94,0,0,1,8.23-5.53,43.33,43.33,0,0,0,15.15-6.54,32.21,32.21,0,0,0,8-7.72c6-8.71,3.23-20.09-9.23-22.78-3-.64-6-.84-9.06-1.29a11.62,11.62,0,0,1-4.07-1.46,8.29,8.29,0,0,1-4.56-7.19c-.15-3.6,2.38-5.89,6-5.53a9.09,9.09,0,0,1,4.26,1.55,107.79,107.79,0,0,1,9,7.35,45.16,45.16,0,0,0,7.09,5.2c.8.44,1.79,1.25,2.59.45s-.09-1.69-.47-2.46a20.44,20.44,0,0,0-2.58-3.63,16.57,16.57,0,0,1-3.66-7.75c-.73-4.36,2.36-8,6.4-7.52a5.78,5.78,0,0,1,4,2.44c1.57,2,2,4.48,2.52,6.91a18.84,18.84,0,0,0,3.22,7.7c1.77,2.39,4.11,3,6.8,2.43a9,9,0,0,0,7.17-6.46c.39-1.17.61-2.42,1.11-3.54a7.3,7.3,0,0,1,6.16-4.74,4.38,4.38,0,0,1,4.5,2.27c.92,1.62.29,3.15-.75,4.48s-2.27,2.63-3.4,4a13.51,13.51,0,0,0-3.24,5.49,2.53,2.53,0,0,0,2.49,3.41A6.38,6.38,0,0,0,881,329a43.73,43.73,0,0,0,5.35-7.74c1.52-2.65,3-5.31,4.6-7.93a7.16,7.16,0,0,1,4.75-3.52c5-1.07,8.73,3.08,7.23,8a12.72,12.72,0,0,1-4.2,5.86c-3.62,3.14-7.85,5.35-12,7.74a7.18,7.18,0,0,0-3.7,5.56,4.7,4.7,0,0,0,0,1.35c.22,1.33.53,2.7,2,3.19a4.1,4.1,0,0,0,4.13-1c1.67-1.42,3-3.22,4.5-4.78,1.89-1.92,3.94-3.34,6.86-3.08,3.56.32,5.43,3.22,4,6.52a10.53,10.53,0,0,1-5.31,5.17,25.35,25.35,0,0,1-4.79,1.65,11.31,11.31,0,0,0-1.64.56c-2.28,1-2.94,2.83-1.8,5.08a20.49,20.49,0,0,0,5.44,6.21c4.17,3.48,9.15,5.39,14.18,7.18l6,2.08c2.83,1,5.13,2.62,6.33,5.51v1a3.92,3.92,0,0,0-.29.53c-.7,1.75-1.46,2.17-3.33,2a13.7,13.7,0,0,1-5.54-2,46.79,46.79,0,0,1-6.33-5c-3.81-3.26-7.71-6.4-12.54-8.05-2-.67-4-1.26-6.18-.74-1.44.35-2.72,1-3,2.57s.69,2.73,1.91,3.62a14.78,14.78,0,0,0,3.58,1.66,14.09,14.09,0,0,1,4,1.93c1.75,1.44,2.71,3.22,2.13,5.55a6,6,0,0,1-4.51,4.79c-2.57.65-4.24-.85-5.63-2.73a60.57,60.57,0,0,1-3.6-6.07,15.59,15.59,0,0,0-3.64-4.66c-1.68-1.32-3.6-2.38-5.69-1.25s-2.27,3.3-2.1,5.44a16.12,16.12,0,0,0,4.34,9.52c2.86,3.25,6.45,5.67,9.67,8.51,2.41,2.11,4.62,4.39,5.78,7.47,2.43,6.47-.84,12.59-7.57,14.14a2.25,2.25,0,0,0-.41.25Zm7.87-11.53a8.81,8.81,0,0,0-2.24-5.26c-2.91-3.44-6.25-6.47-9.43-9.65a3.31,3.31,0,0,0-.27-.26.73.73,0,0,0-.92-.05c-.42.32,0,.61.16.82a20.56,20.56,0,0,0,2.62,3,15.64,15.64,0,0,1,3.22,4,17.82,17.82,0,0,1,2.46,9.84,1.7,1.7,0,0,0,1.33,2,2,2,0,0,0,2.36-1.16A7.65,7.65,0,0,0,890.16,399.47Zm-76.32-23.54a3.75,3.75,0,0,0,.4,1.71,1.78,1.78,0,0,0,1.79,1.09,1.66,1.66,0,0,0,1.51-1.27c1.82-5.21,5.6-8.45,10.57-10.46a23,23,0,0,0,3.68-1.76c.22-.15.66-.2.52-.58a.72.72,0,0,0-.93-.39,4.1,4.1,0,0,0-.59.2c-4,1.65-8.07,3-11.91,4.92C816.09,370.81,814.16,372.84,813.84,375.93Zm87.57-58.21c-.14-1-.16-2.13-1.43-2.46a1.79,1.79,0,0,0-2,1.46c-.82,3.93-3.38,6.5-6.65,8.51-1.27.77-2.59,1.46-3.88,2.2-.28.16-.61.41-.4.79s.59.14.87,0c3.51-1.84,7.23-3.27,10.49-5.58A6.57,6.57,0,0,0,901.41,317.72ZM831.79,328l3.15.27a.61.61,0,0,0,.69-.4c.1-.44-.31-.42-.56-.47a15.23,15.23,0,0,0-2.18-.42,14.62,14.62,0,0,1-11-5.89c-.54-.72-1.18-1.19-2.11-.72a1.88,1.88,0,0,0-.72,2.47,6.28,6.28,0,0,0,4.84,4A44.79,44.79,0,0,0,831.79,328Z" transform="translate(-221 -42)"/><path class="cls-4" d="M827.51,357.4c-3,.76-6.06,1.55-9.1,2.26-4,.93-7.84,2.3-11.76,3.44a8.27,8.27,0,0,1-3.57.14,4.58,4.58,0,0,1-3.41-6.77,8,8,0,0,1,8.2-3.93,24.24,24.24,0,0,1,5.55,1.69,33.52,33.52,0,0,0,12.5,2.77,13.9,13.9,0,0,1,1.56.21Zm-12.13-.46c-1.16-.69-2.08-1.31-3.06-1.83-1.86-1-3.71-2-5.92-1.95a5.41,5.41,0,0,0-4.27,1.91A1.53,1.53,0,0,0,802,357a1.48,1.48,0,0,0,1.76.54c.36-.1.71-.21,1.06-.34a15.28,15.28,0,0,1,8.42-.47A4.12,4.12,0,0,0,815.38,356.94Z" transform="translate(-221 -42)"/><text class="cls-7" transform="translate(606.67 355.33)">P</text><path class="cls-4" d="M510.29,421c-.55-.49-1.29-.44-1.93-.72-3-1.32-4.5-3.78-5.44-6.71a24.57,24.57,0,0,1-1-6.6c-.14-3.34.22-6.71-.5-10A29.74,29.74,0,0,0,497,386.78a11.42,11.42,0,0,0-11.79-4.53c-4.21,1-6.64,4.45-6.68,9.66,0,2.27.37,4.53-.06,6.8a10.41,10.41,0,0,1-2.72,5.73c-1.45,1.42-3.17,2.16-5.19,1.34a5,5,0,0,1-3.19-4.62c-.2-2.56.89-4.67,2.31-6.65a80.47,80.47,0,0,0,6.3-9.94,24.55,24.55,0,0,0,2.71-7.67,5.39,5.39,0,0,0-.34-2.79,2.73,2.73,0,0,0-2.57-1.82,9.26,9.26,0,0,0-4.88,1.17,31.09,31.09,0,0,0-10.14,8.59,44.18,44.18,0,0,0-4.53,6.8,17.24,17.24,0,0,1-3.57,4.73c-5.13,4.6-12.19,2.52-14-4.15a9,9,0,0,1,1.43-7.54,12.94,12.94,0,0,1,8.23-5.53,43.33,43.33,0,0,0,15.15-6.54,32.21,32.21,0,0,0,8-7.72c6-8.71,3.23-20.09-9.23-22.78-3-.64-6-.84-9.06-1.29a11.62,11.62,0,0,1-4.07-1.46,8.29,8.29,0,0,1-4.56-7.19c-.15-3.6,2.38-5.89,6-5.53a9.09,9.09,0,0,1,4.26,1.55,107.79,107.79,0,0,1,9,7.35,45.16,45.16,0,0,0,7.09,5.2c.8.44,1.79,1.25,2.59.45s-.09-1.69-.47-2.46a20.44,20.44,0,0,0-2.58-3.63,16.57,16.57,0,0,1-3.66-7.75c-.73-4.36,2.36-8,6.4-7.52a5.78,5.78,0,0,1,4,2.44c1.57,2,2,4.48,2.52,6.91a18.84,18.84,0,0,0,3.22,7.7c1.77,2.39,4.11,3,6.8,2.43a9,9,0,0,0,7.17-6.46c.39-1.17.61-2.42,1.11-3.54a7.3,7.3,0,0,1,6.16-4.74,4.38,4.38,0,0,1,4.5,2.27c.92,1.62.29,3.15-.75,4.48s-2.27,2.63-3.4,4a13.51,13.51,0,0,0-3.24,5.49,2.53,2.53,0,0,0,2.49,3.41A6.38,6.38,0,0,0,509,339a43.73,43.73,0,0,0,5.35-7.74c1.52-2.65,3-5.31,4.6-7.93a7.16,7.16,0,0,1,4.75-3.52c5-1.07,8.73,3.08,7.23,8a12.72,12.72,0,0,1-4.2,5.86c-3.62,3.14-7.85,5.35-12,7.74a7.18,7.18,0,0,0-3.7,5.56,4.7,4.7,0,0,0,0,1.35c.22,1.33.53,2.7,2,3.19a4.1,4.1,0,0,0,4.13-1c1.67-1.42,3-3.22,4.5-4.78,1.89-1.92,3.94-3.34,6.86-3.08,3.56.32,5.43,3.22,4,6.52a10.53,10.53,0,0,1-5.31,5.17,25.35,25.35,0,0,1-4.79,1.65,11.31,11.31,0,0,0-1.64.56c-2.28,1-2.94,2.83-1.8,5.08a20.49,20.49,0,0,0,5.44,6.21c4.17,3.48,9.15,5.39,14.18,7.18l6,2.08c2.83,1,5.13,2.62,6.33,5.51v1a3.92,3.92,0,0,0-.29.53c-.7,1.75-1.46,2.17-3.33,2a13.7,13.7,0,0,1-5.54-2,46.79,46.79,0,0,1-6.33-5c-3.81-3.26-7.71-6.4-12.54-8.05-2-.67-4-1.26-6.18-.74-1.44.35-2.72,1-3,2.57s.69,2.73,1.91,3.62a14.78,14.78,0,0,0,3.58,1.66,14.09,14.09,0,0,1,4,1.93c1.75,1.44,2.71,3.22,2.13,5.55a6,6,0,0,1-4.51,4.79c-2.57.65-4.24-.85-5.63-2.73a60.57,60.57,0,0,1-3.6-6.07,15.59,15.59,0,0,0-3.64-4.66c-1.68-1.32-3.6-2.38-5.69-1.25s-2.27,3.3-2.1,5.44a16.12,16.12,0,0,0,4.34,9.52c2.86,3.25,6.45,5.67,9.67,8.51,2.41,2.11,4.62,4.39,5.78,7.47,2.43,6.47-.84,12.59-7.57,14.14a2.25,2.25,0,0,0-.41.25Zm7.87-11.53a8.81,8.81,0,0,0-2.24-5.26c-2.91-3.44-6.25-6.47-9.43-9.65a3.31,3.31,0,0,0-.27-.26.73.73,0,0,0-.92-.05c-.42.32,0,.61.16.82a20.56,20.56,0,0,0,2.62,3,15.64,15.64,0,0,1,3.22,4,17.82,17.82,0,0,1,2.46,9.84,1.7,1.7,0,0,0,1.33,2,2,2,0,0,0,2.36-1.16A7.65,7.65,0,0,0,518.16,409.47Zm-76.32-23.54a3.75,3.75,0,0,0,.4,1.71,1.78,1.78,0,0,0,1.79,1.09,1.66,1.66,0,0,0,1.51-1.27c1.82-5.21,5.6-8.45,10.57-10.46a23,23,0,0,0,3.68-1.76c.22-.15.66-.2.52-.58a.72.72,0,0,0-.93-.39,4.1,4.1,0,0,0-.59.2c-4,1.65-8.07,3-11.91,4.92C444.09,380.81,442.16,382.84,441.84,385.93Zm87.57-58.21c-.14-1-.16-2.13-1.43-2.46a1.79,1.79,0,0,0-2,1.46c-.82,3.93-3.38,6.5-6.65,8.51-1.27.77-2.59,1.46-3.88,2.2-.28.16-.61.41-.4.79s.59.14.87,0c3.51-1.84,7.23-3.27,10.49-5.58A6.57,6.57,0,0,0,529.41,327.72ZM459.79,338l3.15.27a.61.61,0,0,0,.69-.4c.1-.44-.31-.42-.56-.47a15.23,15.23,0,0,0-2.18-.42,14.62,14.62,0,0,1-11-5.89c-.54-.72-1.18-1.19-2.11-.72a1.88,1.88,0,0,0-.72,2.47,6.28,6.28,0,0,0,4.84,4A44.79,44.79,0,0,0,459.79,338Z" transform="translate(-221 -42)"/><path class="cls-4" d="M455.51,367.4c-3,.76-6.06,1.55-9.1,2.26-4,.93-7.84,2.3-11.76,3.44a8.27,8.27,0,0,1-3.57.14,4.58,4.58,0,0,1-3.41-6.77,8,8,0,0,1,8.2-3.93,24.24,24.24,0,0,1,5.55,1.69,33.52,33.52,0,0,0,12.5,2.77,13.9,13.9,0,0,1,1.56.21Zm-12.13-.46c-1.16-.69-2.08-1.31-3.06-1.83-1.86-1-3.71-2-5.92-1.95a5.41,5.41,0,0,0-4.27,1.91A1.53,1.53,0,0,0,430,367a1.48,1.48,0,0,0,1.76.54c.36-.1.71-.21,1.06-.34a15.28,15.28,0,0,1,8.42-.47A4.12,4.12,0,0,0,443.38,366.94Z" transform="translate(-221 -42)"/><text class="cls-8" transform="translate(239.67 355.33)">O</text><rect class="cls-1" x="173.5" y="423.5" width="296" height="130" rx="11.5" ry="11.5"/><path d="M679,466a11,11,0,0,1,11,11V584a11,11,0,0,1-11,11H406a11,11,0,0,1-11-11V477a11,11,0,0,1,11-11H679m0-1H406a12,12,0,0,0-12,12V584a12,12,0,0,0,12,12H679a12,12,0,0,0,12-12V477a12,12,0,0,0-12-12Z" transform="translate(-221 -42)"/><rect class="cls-5" x="265.5" y="436.5" width="101" height="101"/><text class="cls-3" transform="translate(304.88 502)">?</text><line class="cls-5" x1="312.5" y1="567.5" x2="459.5" y2="723.5"/><line class="cls-5" x1="170.5" y1="717.5" x2="312.5" y2="567.5"/><rect class="cls-1" x="310.5" y="734.5" width="296" height="130" rx="11.5" ry="11.5"/><path d="M816,777a11,11,0,0,1,11,11V895a11,11,0,0,1-11,11H543a11,11,0,0,1-11-11V788a11,11,0,0,1,11-11H816m0-1H543a12,12,0,0,0-12,12V895a12,12,0,0,0,12,12H816a12,12,0,0,0,12-12V788a12,12,0,0,0-12-12Z" transform="translate(-221 -42)"/><rect class="cls-1" x="0.5" y="737.5" width="296" height="130" rx="11.5" ry="11.5"/><path d="M506,780a11,11,0,0,1,11,11V898a11,11,0,0,1-11,11H233a11,11,0,0,1-11-11V791a11,11,0,0,1,11-11H506m0-1H233a12,12,0,0,0-12,12V898a12,12,0,0,0,12,12H506a12,12,0,0,0,12-12V791a12,12,0,0,0-12-12Z" transform="translate(-221 -42)"/><rect class="cls-5" x="441.5" y="585.5" width="101" height="101"/><rect class="cls-5" x="89.5" y="577.5" width="101" height="101"/><text class="cls-8" transform="translate(107.67 663.33)">O</text><text class="cls-7" transform="translate(455.67 678.33)">P</text><polygon class="cls-9" points="132.33 751.5 73.89 852.72 190.76 852.72 132.33 751.5"/><rect class="cls-10" x="408.5" y="751.5" width="101" height="101"/></svg>