<svg id="Layer_1" data-name="Layer 1" xmlns="http://www.w3.org/2000/svg" viewBox="0 0 1156.98 925.91"><defs><style>.cls-1{fill:#17e8ff;}.cls-1,.cls-3,.cls-5{stroke:#000;}.cls-1,.cls-3,.cls-4,.cls-5,.cls-6{stroke-miterlimit:10;}.cls-2,.cls-7{font-size:48px;font-family:Calibri, Calibri;}.cls-2{fill:#fff;}.cls-3{fill:#00c90a;}.cls-4,.cls-6{fill:none;stroke:gray;}.cls-4{stroke-dasharray:11.95 11.95;}.cls-5{fill:#ff0006;fill-rule:evenodd;}.cls-6{stroke-dasharray:11.98 11.98;}.cls-7{fill:gray;}</style></defs><title>KNN</title><circle class="cls-1" cx="581.98" cy="435.69" r="50.5"/><text class="cls-2" transform="translate(570.86 448.69)">?</text><rect class="cls-3" x="652.48" y="357.19" width="101" height="101"/><circle class="cls-4" cx="582.48" cy="436.19" r="213"/><polygon class="cls-5" points="398.31 620.19 339.87 721.41 456.74 721.41 398.31 620.19"/><polygon class="cls-5" points="319.31 234.19 260.87 335.41 377.74 335.41 319.31 234.19"/><circle class="cls-6" cx="577.48" cy="436.19" r="389"/><rect class="cls-3" x="865.48" y="12.19" width="101" height="101"/><rect class="cls-3" x="936.48" y="736.19" width="101" height="101"/><rect class="cls-3" x="1037.48" y="251.19" width="101" height="101"/><polygon class="cls-5" points="159.31 569.19 100.87 670.41 217.74 670.41 159.31 569.19"/><polygon class="cls-5" points="83.31 306.19 24.87 407.41 141.74 407.41 83.31 306.19"/><polygon class="cls-5" points="101.31 47.19 42.87 148.41 159.74 148.41 101.31 47.19"/><polygon class="cls-5" points="59.3 824.19 0.87 925.41 117.74 925.41 59.3 824.19"/><rect class="cls-3" x="1055.48" y="430.19" width="101" height="101"/><text class="cls-7" transform="translate(529.59 214.16)">K = 1</text><text class="cls-7" transform="translate(529.59 39.16)">K = 3</text></svg>