<svg xmlns="http://www.w3.org/2000/svg" viewBox="0 0 1162.93 903"><defs><style>.cls-1{fill:none;stroke:#000;stroke-miterlimit:10;}.cls-2{fill:#fff;}.cls-3{font-size:600px;font-family:Century, Century;}.cls-4{font-size:48px;font-family:Calibri, Calibri;}</style></defs><title>NN</title><g id="Layer_2" data-name="Layer 2"><line class="cls-1" x1="608.5" y1="193.5" x2="838.5" y2="21.5"/><line class="cls-1" x1="608.5" y1="193.5" x2="838.5" y2="107.5"/><line class="cls-1" x1="838.5" y1="193.5" x2="608.5" y2="193.5"/><line class="cls-1" x1="838.5" y1="279.5" x2="608.5" y2="193.5"/><line class="cls-1" x1="838.5" y1="365.5" x2="608.5" y2="193.5"/><line class="cls-1" x1="838.5" y1="451.5" x2="608.5" y2="193.5"/><line class="cls-1" x1="838.5" y1="537.5" x2="608.5" y2="193.5"/><line class="cls-1" x1="838.5" y1="623.5" x2="608.5" y2="193.5"/><line class="cls-1" x1="838.5" y1="709.5" x2="608.5" y2="193.5"/><line class="cls-1" x1="838.5" y1="795.5" x2="608.5" y2="193.5"/><line class="cls-1" x1="838.5" y1="881.5" x2="608.5" y2="193.5"/><line class="cls-1" x1="607" y1="366.5" x2="837" y2="22.5"/><line class="cls-1" x1="607" y1="366.5" x2="837" y2="108.5"/><line class="cls-1" x1="837" y1="194.5" x2="607" y2="366.5"/><line class="cls-1" x1="837" y1="280.5" x2="607" y2="366.5"/><line class="cls-1" x1="837" y1="366.5" x2="607" y2="366.5"/><line class="cls-1" x1="837" y1="452.5" x2="607" y2="366.5"/><line class="cls-1" x1="837" y1="538.5" x2="607" y2="366.5"/><line class="cls-1" x1="837" y1="624.5" x2="607" y2="366.5"/><line class="cls-1" x1="837" y1="710.5" x2="607" y2="366.5"/><line class="cls-1" x1="837" y1="796.5" x2="607" y2="366.5"/><line class="cls-1" x1="837" y1="882.5" x2="607" y2="366.5"/><line class="cls-1" x1="609" y1="537.5" x2="839" y2="23.5"/><line class="cls-1" x1="609" y1="537.5" x2="839" y2="109.5"/><line class="cls-1" x1="839" y1="195.5" x2="609" y2="537.5"/><line class="cls-1" x1="839" y1="281.5" x2="609" y2="537.5"/><line class="cls-1" x1="839" y1="367.5" x2="609" y2="537.5"/><line class="cls-1" x1="839" y1="453.5" x2="609" y2="537.5"/><line class="cls-1" x1="839" y1="539.5" x2="609" y2="537.5"/><line class="cls-1" x1="839" y1="625.5" x2="609" y2="537.5"/><line class="cls-1" x1="839" y1="711.5" x2="609" y2="537.5"/><line class="cls-1" x1="839" y1="797.5" x2="609" y2="537.5"/><line class="cls-1" x1="839" y1="883.5" x2="609" y2="537.5"/><line class="cls-1" x1="607" y1="711.5" x2="837" y2="883.5"/><line class="cls-1" x1="607" y1="711.5" x2="837" y2="797.5"/><line class="cls-1" x1="837" y1="711.5" x2="607" y2="711.5"/><line class="cls-1" x1="837" y1="625.5" x2="607" y2="711.5"/><line class="cls-1" x1="837" y1="539.5" x2="607" y2="711.5"/><line class="cls-1" x1="837" y1="453.5" x2="607" y2="711.5"/><line class="cls-1" x1="837" y1="367.5" x2="607" y2="711.5"/><line class="cls-1" x1="837" y1="281.5" x2="607" y2="711.5"/><line class="cls-1" x1="837" y1="195.5" x2="607" y2="711.5"/><line class="cls-1" x1="837" y1="109.5" x2="607" y2="711.5"/><line class="cls-1" x1="837" y1="23.5" x2="607" y2="711.5"/><line class="cls-1" x1="1102" y1="64.5" x2="837" y2="23.5"/><line class="cls-1" x1="1102" y1="64.5" x2="837" y2="109.5"/><line class="cls-1" x1="837" y1="195.5" x2="1102" y2="64.5"/><line class="cls-1" x1="837" y1="281.5" x2="1102" y2="64.5"/><line class="cls-1" x1="837" y1="367.5" x2="1102" y2="64.5"/><line class="cls-1" x1="837" y1="453.5" x2="1102" y2="64.5"/><line class="cls-1" x1="837" y1="539.5" x2="1102" y2="64.5"/><line class="cls-1" x1="837" y1="625.5" x2="1102" y2="64.5"/><line class="cls-1" x1="837" y1="711.5" x2="1102" y2="64.5"/><line class="cls-1" x1="837" y1="797.5" x2="1102" y2="64.5"/><line class="cls-1" x1="837" y1="883.5" x2="1102" y2="64.5"/><line class="cls-1" x1="1102" y1="150.5" x2="839" y2="23.5"/><line class="cls-1" x1="1102" y1="150.5" x2="839" y2="109.5"/><line class="cls-1" x1="839" y1="195.5" x2="1102" y2="150.5"/><line class="cls-1" x1="839" y1="281.5" x2="1102" y2="150.5"/><line class="cls-1" x1="839" y1="367.5" x2="1102" y2="150.5"/><line class="cls-1" x1="839" y1="453.5" x2="1102" y2="150.5"/><line class="cls-1" x1="839" y1="539.5" x2="1102" y2="150.5"/><line class="cls-1" x1="839" y1="625.5" x2="1102" y2="150.5"/><line class="cls-1" x1="839" y1="711.5" x2="1102" y2="150.5"/><line class="cls-1" x1="839" y1="797.5" x2="1102" y2="150.5"/><line class="cls-1" x1="839" y1="883.5" x2="1102" y2="150.5"/><line class="cls-1" x1="1102" y1="236.5" x2="845" y2="21.5"/><line class="cls-1" x1="1102" y1="236.5" x2="845" y2="107.5"/><line class="cls-1" x1="845" y1="193.5" x2="1102" y2="236.5"/><line class="cls-1" x1="845" y1="279.5" x2="1102" y2="236.5"/><line class="cls-1" x1="845" y1="365.5" x2="1102" y2="236.5"/><line class="cls-1" x1="845" y1="451.5" x2="1102" y2="236.5"/><line class="cls-1" x1="845" y1="537.5" x2="1102" y2="236.5"/><line class="cls-1" x1="845" y1="623.5" x2="1102" y2="236.5"/><line class="cls-1" x1="845" y1="709.5" x2="1102" y2="236.5"/><line class="cls-1" x1="845" y1="795.5" x2="1102" y2="236.5"/><line class="cls-1" x1="845" y1="881.5" x2="1102" y2="236.5"/><line class="cls-1" x1="1102" y1="322.5" x2="839" y2="23.5"/><line class="cls-1" x1="1102" y1="322.5" x2="839" y2="109.5"/><line class="cls-1" x1="839" y1="195.5" x2="1102" y2="322.5"/><line class="cls-1" x1="839" y1="281.5" x2="1102" y2="322.5"/><line class="cls-1" x1="839" y1="367.5" x2="1102" y2="322.5"/><line class="cls-1" x1="839" y1="453.5" x2="1102" y2="322.5"/><line class="cls-1" x1="839" y1="539.5" x2="1102" y2="322.5"/><line class="cls-1" x1="839" y1="625.5" x2="1102" y2="322.5"/><line class="cls-1" x1="839" y1="711.5" x2="1102" y2="322.5"/><line class="cls-1" x1="839" y1="797.5" x2="1102" y2="322.5"/><line class="cls-1" x1="839" y1="883.5" x2="1102" y2="322.5"/><line class="cls-1" x1="1102" y1="408.5" x2="839" y2="23.5"/><line class="cls-1" x1="1102" y1="408.5" x2="839" y2="109.5"/><line class="cls-1" x1="839" y1="195.5" x2="1102" y2="408.5"/><line class="cls-1" x1="839" y1="281.5" x2="1102" y2="408.5"/><line class="cls-1" x1="839" y1="367.5" x2="1102" y2="408.5"/><line class="cls-1" x1="839" y1="453.5" x2="1102" y2="408.5"/><line class="cls-1" x1="839" y1="539.5" x2="1102" y2="408.5"/><line class="cls-1" x1="839" y1="625.5" x2="1102" y2="408.5"/><line class="cls-1" x1="839" y1="711.5" x2="1102" y2="408.5"/><line class="cls-1" x1="839" y1="797.5" x2="1102" y2="408.5"/><line class="cls-1" x1="839" y1="883.5" x2="1102" y2="408.5"/><line class="cls-1" x1="1102" y1="494.5" x2="839" y2="23.5"/><line class="cls-1" x1="1102" y1="494.5" x2="839" y2="109.5"/><line class="cls-1" x1="839" y1="195.5" x2="1102" y2="494.5"/><line class="cls-1" x1="839" y1="281.5" x2="1102" y2="494.5"/><line class="cls-1" x1="839" y1="367.5" x2="1102" y2="494.5"/><line class="cls-1" x1="839" y1="453.5" x2="1102" y2="494.5"/><line class="cls-1" x1="839" y1="539.5" x2="1102" y2="494.5"/><line class="cls-1" x1="839" y1="625.5" x2="1102" y2="494.5"/><line class="cls-1" x1="839" y1="711.5" x2="1102" y2="494.5"/><line class="cls-1" x1="839" y1="797.5" x2="1102" y2="494.5"/><line class="cls-1" x1="839" y1="883.5" x2="1102" y2="494.5"/><line class="cls-1" x1="1102" y1="580.5" x2="838" y2="21.5"/><line class="cls-1" x1="1102" y1="580.5" x2="838" y2="107.5"/><line class="cls-1" x1="838" y1="193.5" x2="1102" y2="580.5"/><line class="cls-1" x1="838" y1="279.5" x2="1102" y2="580.5"/><line class="cls-1" x1="838" y1="365.5" x2="1102" y2="580.5"/><line class="cls-1" x1="838" y1="451.5" x2="1102" y2="580.5"/><line class="cls-1" x1="838" y1="537.5" x2="1102" y2="580.5"/><line class="cls-1" x1="838" y1="623.5" x2="1102" y2="580.5"/><line class="cls-1" x1="838" y1="709.5" x2="1102" y2="580.5"/><line class="cls-1" x1="838" y1="795.5" x2="1102" y2="580.5"/><line class="cls-1" x1="838" y1="881.5" x2="1102" y2="580.5"/><line class="cls-1" x1="1102" y1="666.5" x2="839" y2="23.5"/><line class="cls-1" x1="1102" y1="666.5" x2="839" y2="109.5"/><line class="cls-1" x1="839" y1="195.5" x2="1102" y2="666.5"/><line class="cls-1" x1="839" y1="281.5" x2="1102" y2="666.5"/><line class="cls-1" x1="839" y1="367.5" x2="1102" y2="666.5"/><line class="cls-1" x1="839" y1="453.5" x2="1102" y2="666.5"/><line class="cls-1" x1="839" y1="539.5" x2="1102" y2="666.5"/><line class="cls-1" x1="839" y1="625.5" x2="1102" y2="666.5"/><line class="cls-1" x1="839" y1="711.5" x2="1102" y2="666.5"/><line class="cls-1" x1="839" y1="797.5" x2="1102" y2="666.5"/><line class="cls-1" x1="839" y1="883.5" x2="1102" y2="666.5"/><line class="cls-1" x1="1102" y1="752.5" x2="839" y2="19.5"/><line class="cls-1" x1="1102" y1="752.5" x2="839" y2="105.5"/><line class="cls-1" x1="839" y1="191.5" x2="1102" y2="752.5"/><line class="cls-1" x1="839" y1="277.5" x2="1102" y2="752.5"/><line class="cls-1" x1="839" y1="363.5" x2="1102" y2="752.5"/><line class="cls-1" x1="839" y1="449.5" x2="1102" y2="752.5"/><line class="cls-1" x1="839" y1="535.5" x2="1102" y2="752.5"/><line class="cls-1" x1="839" y1="621.5" x2="1102" y2="752.5"/><line class="cls-1" x1="839" y1="707.5" x2="1102" y2="752.5"/><line class="cls-1" x1="839" y1="793.5" x2="1102" y2="752.5"/><line class="cls-1" x1="839" y1="879.5" x2="1102" y2="752.5"/><line class="cls-1" x1="1102" y1="838.5" x2="838" y2="21.5"/><line class="cls-1" x1="1102" y1="838.5" x2="838" y2="107.5"/><line class="cls-1" x1="838" y1="193.5" x2="1102" y2="838.5"/><line class="cls-1" x1="838" y1="279.5" x2="1102" y2="838.5"/><line class="cls-1" x1="838" y1="365.5" x2="1102" y2="838.5"/><line class="cls-1" x1="838" y1="451.5" x2="1102" y2="838.5"/><line class="cls-1" x1="838" y1="537.5" x2="1102" y2="838.5"/><line class="cls-1" x1="838" y1="623.5" x2="1102" y2="838.5"/><line class="cls-1" x1="838" y1="709.5" x2="1102" y2="838.5"/><line class="cls-1" x1="838" y1="795.5" x2="1102" y2="838.5"/><line class="cls-1" x1="838" y1="881.5" x2="1102" y2="838.5"/></g><g id="Layer_1" data-name="Layer 1"><circle class="cls-2" cx="838.5" cy="21.5" r="21"/><path d="M903.5,61A20.5,20.5,0,1,1,883,81.5,20.53,20.53,0,0,1,903.5,61m0-1A21.5,21.5,0,1,0,925,81.5,21.51,21.51,0,0,0,903.5,60Z" transform="translate(-65 -60)"/><circle class="cls-2" cx="838.5" cy="451.5" r="21"/><path d="M903.5,491A20.5,20.5,0,1,1,883,511.5,20.53,20.53,0,0,1,903.5,491m0-1A21.5,21.5,0,1,0,925,511.5,21.51,21.51,0,0,0,903.5,490Z" transform="translate(-65 -60)"/><circle class="cls-2" cx="838.5" cy="107.5" r="21"/><path d="M903.5,147A20.5,20.5,0,1,1,883,167.5,20.53,20.53,0,0,1,903.5,147m0-1A21.5,21.5,0,1,0,925,167.5,21.51,21.51,0,0,0,903.5,146Z" transform="translate(-65 -60)"/><circle class="cls-2" cx="838.5" cy="279.5" r="21"/><path d="M903.5,319A20.5,20.5,0,1,1,883,339.5,20.53,20.53,0,0,1,903.5,319m0-1A21.5,21.5,0,1,0,925,339.5,21.51,21.51,0,0,0,903.5,318Z" transform="translate(-65 -60)"/><circle class="cls-2" cx="838.5" cy="537.5" r="21"/><path d="M903.5,577A20.5,20.5,0,1,1,883,597.5,20.53,20.53,0,0,1,903.5,577m0-1A21.5,21.5,0,1,0,925,597.5,21.51,21.51,0,0,0,903.5,576Z" transform="translate(-65 -60)"/><circle class="cls-2" cx="838.5" cy="365.5" r="21"/><path d="M903.5,405A20.5,20.5,0,1,1,883,425.5,20.53,20.53,0,0,1,903.5,405m0-1A21.5,21.5,0,1,0,925,425.5,21.51,21.51,0,0,0,903.5,404Z" transform="translate(-65 -60)"/><circle class="cls-2" cx="838.5" cy="193.5" r="21"/><path d="M903.5,233A20.5,20.5,0,1,1,883,253.5,20.53,20.53,0,0,1,903.5,233m0-1A21.5,21.5,0,1,0,925,253.5,21.51,21.51,0,0,0,903.5,232Z" transform="translate(-65 -60)"/><circle class="cls-2" cx="838.5" cy="623.5" r="21"/><path d="M903.5,663A20.5,20.5,0,1,1,883,683.5,20.53,20.53,0,0,1,903.5,663m0-1A21.5,21.5,0,1,0,925,683.5,21.51,21.51,0,0,0,903.5,662Z" transform="translate(-65 -60)"/><circle class="cls-2" cx="838.5" cy="709.5" r="21"/><path d="M903.5,749A20.5,20.5,0,1,1,883,769.5,20.53,20.53,0,0,1,903.5,749m0-1A21.5,21.5,0,1,0,925,769.5,21.51,21.51,0,0,0,903.5,748Z" transform="translate(-65 -60)"/><circle class="cls-2" cx="838.5" cy="881.5" r="21"/><path d="M903.5,921A20.5,20.5,0,1,1,883,941.5,20.53,20.53,0,0,1,903.5,921m0-1A21.5,21.5,0,1,0,925,941.5,21.51,21.51,0,0,0,903.5,920Z" transform="translate(-65 -60)"/><circle class="cls-2" cx="838.5" cy="795.5" r="21"/><path d="M903.5,835A20.5,20.5,0,1,1,883,855.5,20.53,20.53,0,0,1,903.5,835m0-1A21.5,21.5,0,1,0,925,855.5,21.51,21.51,0,0,0,903.5,834Z" transform="translate(-65 -60)"/><circle class="cls-2" cx="1102.5" cy="64.5" r="21"/><path d="M1167.5,104a20.5,20.5,0,1,1-20.5,20.5,20.53,20.53,0,0,1,20.5-20.5m0-1a21.5,21.5,0,1,0,21.5,21.5,21.51,21.51,0,0,0-21.5-21.5Z" transform="translate(-65 -60)"/><circle class="cls-2" cx="1102.5" cy="494.5" r="21"/><path d="M1167.5,534a20.5,20.5,0,1,1-20.5,20.5,20.53,20.53,0,0,1,20.5-20.5m0-1a21.5,21.5,0,1,0,21.5,21.5,21.51,21.51,0,0,0-21.5-21.5Z" transform="translate(-65 -60)"/><circle class="cls-2" cx="1102.5" cy="150.5" r="21"/><path d="M1167.5,190a20.5,20.5,0,1,1-20.5,20.5,20.53,20.53,0,0,1,20.5-20.5m0-1a21.5,21.5,0,1,0,21.5,21.5,21.51,21.51,0,0,0-21.5-21.5Z" transform="translate(-65 -60)"/><circle class="cls-2" cx="1102.5" cy="322.5" r="21"/><path d="M1167.5,362a20.5,20.5,0,1,1-20.5,20.5,20.53,20.53,0,0,1,20.5-20.5m0-1a21.5,21.5,0,1,0,21.5,21.5,21.51,21.51,0,0,0-21.5-21.5Z" transform="translate(-65 -60)"/><circle class="cls-2" cx="1102.5" cy="580.5" r="21"/><path d="M1167.5,620a20.5,20.5,0,1,1-20.5,20.5,20.53,20.53,0,0,1,20.5-20.5m0-1a21.5,21.5,0,1,0,21.5,21.5,21.51,21.51,0,0,0-21.5-21.5Z" transform="translate(-65 -60)"/><circle class="cls-2" cx="1102.5" cy="408.5" r="21"/><path d="M1167.5,448a20.5,20.5,0,1,1-20.5,20.5,20.53,20.53,0,0,1,20.5-20.5m0-1a21.5,21.5,0,1,0,21.5,21.5,21.51,21.51,0,0,0-21.5-21.5Z" transform="translate(-65 -60)"/><circle class="cls-2" cx="1102.5" cy="236.5" r="21"/><path d="M1167.5,276a20.5,20.5,0,1,1-20.5,20.5,20.53,20.53,0,0,1,20.5-20.5m0-1a21.5,21.5,0,1,0,21.5,21.5,21.51,21.51,0,0,0-21.5-21.5Z" transform="translate(-65 -60)"/><circle class="cls-2" cx="1102.5" cy="666.5" r="21"/><path d="M1167.5,706a20.5,20.5,0,1,1-20.5,20.5,20.53,20.53,0,0,1,20.5-20.5m0-1a21.5,21.5,0,1,0,21.5,21.5,21.51,21.51,0,0,0-21.5-21.5Z" transform="translate(-65 -60)"/><circle class="cls-2" cx="1102.5" cy="752.5" r="21"/><path d="M1167.5,792a20.5,20.5,0,1,1-20.5,20.5,20.53,20.53,0,0,1,20.5-20.5m0-1a21.5,21.5,0,1,0,21.5,21.5,21.51,21.51,0,0,0-21.5-21.5Z" transform="translate(-65 -60)"/><circle class="cls-2" cx="1102.5" cy="838.5" r="21"/><path d="M1167.5,878a20.5,20.5,0,1,1-20.5,20.5,20.53,20.53,0,0,1,20.5-20.5m0-1a21.5,21.5,0,1,0,21.5,21.5,21.51,21.51,0,0,0-21.5-21.5Z" transform="translate(-65 -60)"/><circle class="cls-2" cx="608.5" cy="193.5" r="21"/><path d="M673.5,233A20.5,20.5,0,1,1,653,253.5,20.53,20.53,0,0,1,673.5,233m0-1A21.5,21.5,0,1,0,695,253.5,21.51,21.51,0,0,0,673.5,232Z" transform="translate(-65 -60)"/><circle class="cls-2" cx="608.5" cy="365.5" r="21"/><path d="M673.5,405A20.5,20.5,0,1,1,653,425.5,20.53,20.53,0,0,1,673.5,405m0-1A21.5,21.5,0,1,0,695,425.5,21.51,21.51,0,0,0,673.5,404Z" transform="translate(-65 -60)"/><circle class="cls-2" cx="608.5" cy="537.5" r="21"/><path d="M673.5,577A20.5,20.5,0,1,1,653,597.5,20.53,20.53,0,0,1,673.5,577m0-1A21.5,21.5,0,1,0,695,597.5,21.51,21.51,0,0,0,673.5,576Z" transform="translate(-65 -60)"/><circle class="cls-2" cx="608.5" cy="709.5" r="21"/><path d="M673.5,749A20.5,20.5,0,1,1,653,769.5,20.53,20.53,0,0,1,673.5,749m0-1A21.5,21.5,0,1,0,695,769.5,21.51,21.51,0,0,0,673.5,748Z" transform="translate(-65 -60)"/><rect x="248.78" y="341.26" width="13.79" height="13.79"/><rect class="cls-2" x="262.57" y="327.47" width="13.79" height="13.79"/><rect x="110.84" y="479.19" width="13.8" height="13.79"/><rect x="262.57" y="534.36" width="13.79" height="13.8"/><rect x="221.19" y="589.53" width="13.79" height="13.8"/><rect x="152.22" y="603.33" width="13.8" height="13.79"/><rect x="138.43" y="617.12" width="13.79" height="13.79"/><rect x="207.4" y="617.12" width="13.79" height="13.79"/><rect x="248.78" y="589.53" width="13.79" height="13.8"/><rect x="262.57" y="575.74" width="13.79" height="13.79"/><rect x="97.05" y="437.81" width="13.79" height="13.79"/><rect x="193.6" y="313.67" width="13.8" height="13.8"/><rect x="248.78" y="355.05" width="13.79" height="13.79"/><rect x="276.36" y="368.84" width="13.8" height="13.8"/><rect x="262.57" y="396.43" width="13.79" height="13.79"/><rect x="248.78" y="424.02" width="13.79" height="13.79"/><rect x="234.98" y="437.81" width="13.8" height="13.79"/><rect x="138.43" y="479.19" width="13.79" height="13.79"/><rect x="124.64" y="492.98" width="13.79" height="13.8"/><rect x="110.84" y="506.78" width="13.8" height="13.79"/><rect x="110.84" y="520.57" width="13.8" height="13.79"/><rect x="83.26" y="424.02" width="13.79" height="13.79"/><rect x="69.47" y="424.02" width="13.79" height="13.79"/><rect x="234.98" y="327.47" width="13.8" height="13.79"/><rect x="221.19" y="313.67" width="13.79" height="13.8"/><rect x="207.4" y="313.67" width="13.79" height="13.8"/><rect x="83.26" y="382.64" width="13.79" height="13.79"/><rect x="97.05" y="368.84" width="13.79" height="13.8"/><rect x="110.84" y="355.05" width="13.8" height="13.79"/><rect x="124.64" y="327.47" width="13.79" height="13.79"/><rect x="138.43" y="341.26" width="13.79" height="13.79"/><rect x="166.02" y="327.47" width="13.79" height="13.79"/><rect x="152.22" y="327.47" width="13.8" height="13.79"/><rect x="138.43" y="327.47" width="13.79" height="13.79"/><rect x="110.84" y="341.26" width="13.8" height="13.79"/><rect x="97.05" y="355.05" width="13.79" height="13.79"/><rect x="83.26" y="368.84" width="13.79" height="13.8"/><rect x="69.47" y="396.43" width="13.79" height="13.79"/><rect x="69.47" y="382.64" width="13.79" height="13.79"/><rect x="69.47" y="410.22" width="13.79" height="13.8"/><rect x="83.26" y="437.81" width="13.79" height="13.79"/><rect x="97.05" y="451.6" width="13.79" height="13.8"/><rect x="110.84" y="451.6" width="13.8" height="13.8"/><rect x="110.84" y="465.4" width="13.8" height="13.79"/><rect x="124.64" y="479.19" width="13.79" height="13.79"/><rect x="124.64" y="341.26" width="13.79" height="13.79"/><rect x="152.22" y="341.26" width="13.8" height="13.79"/><rect x="179.81" y="327.47" width="13.79" height="13.79"/><rect x="193.6" y="327.47" width="13.8" height="13.79"/><rect x="221.19" y="327.47" width="13.79" height="13.79"/><rect x="248.78" y="327.47" width="13.79" height="13.79"/><rect x="262.57" y="341.26" width="13.79" height="13.79"/><rect class="cls-2" x="276.36" y="355.05" width="13.8" height="13.79"/><rect x="262.57" y="368.84" width="13.79" height="13.8"/><rect x="262.57" y="355.05" width="13.79" height="13.79"/><rect class="cls-2" x="248.78" y="368.84" width="13.79" height="13.8"/><rect x="262.57" y="382.64" width="13.79" height="13.79"/><rect x="248.78" y="396.43" width="13.79" height="13.79"/><rect x="248.78" y="410.22" width="13.79" height="13.8"/><rect x="234.98" y="424.02" width="13.8" height="13.79"/><rect x="221.19" y="437.81" width="13.79" height="13.79"/><rect x="207.4" y="451.6" width="13.79" height="13.8"/><rect x="221.19" y="451.6" width="13.79" height="13.8"/><rect x="193.6" y="451.6" width="13.8" height="13.8"/><rect x="234.98" y="451.6" width="13.8" height="13.8"/><rect x="193.6" y="465.4" width="13.8" height="13.79"/><rect x="152.22" y="479.19" width="13.8" height="13.79"/><rect x="152.22" y="492.98" width="13.8" height="13.8"/><rect x="179.81" y="479.19" width="13.79" height="13.79"/><rect x="166.02" y="479.19" width="13.79" height="13.79"/><rect x="138.43" y="492.98" width="13.79" height="13.8"/><rect x="124.64" y="506.78" width="13.79" height="13.79"/><rect x="124.64" y="520.57" width="13.79" height="13.79"/><rect class="cls-2" x="97.05" y="506.78" width="13.79" height="13.79"/><rect x="97.05" y="534.36" width="13.79" height="13.8"/><rect x="110.84" y="534.36" width="13.8" height="13.8"/><rect x="207.4" y="479.19" width="13.79" height="13.79"/><rect x="193.6" y="492.98" width="13.8" height="13.8"/><rect x="193.6" y="479.19" width="13.8" height="13.79"/><rect x="221.19" y="492.98" width="13.79" height="13.8"/><rect x="221.19" y="506.78" width="13.79" height="13.79"/><rect x="207.4" y="492.98" width="13.79" height="13.8"/><rect x="234.98" y="506.78" width="13.8" height="13.79"/><rect x="248.78" y="506.78" width="13.79" height="13.79"/><rect x="248.78" y="520.57" width="13.79" height="13.79"/><rect x="248.78" y="534.36" width="13.79" height="13.8"/><rect x="262.57" y="548.16" width="13.79" height="13.79"/><rect x="262.57" y="561.95" width="13.79" height="13.79"/><rect x="248.78" y="575.74" width="13.79" height="13.79"/><rect x="234.98" y="589.53" width="13.8" height="13.8"/><rect x="221.19" y="603.33" width="13.79" height="13.79"/><rect x="207.4" y="603.33" width="13.79" height="13.79"/><rect x="193.6" y="617.12" width="13.8" height="13.79"/><rect x="97.05" y="548.16" width="13.79" height="13.79"/><rect x="83.26" y="548.16" width="13.79" height="13.79"/><rect x="97.05" y="561.95" width="13.79" height="13.79"/><rect x="83.26" y="561.95" width="13.79" height="13.79"/><rect x="97.05" y="575.74" width="13.79" height="13.79"/><rect x="110.84" y="575.74" width="13.8" height="13.79"/><rect x="97.05" y="589.53" width="13.79" height="13.8"/><rect x="110.84" y="589.53" width="13.8" height="13.8"/><rect x="124.64" y="603.33" width="13.79" height="13.79"/><rect x="138.43" y="603.33" width="13.79" height="13.79"/><rect x="179.81" y="617.12" width="13.79" height="13.79"/><rect x="166.02" y="617.12" width="13.79" height="13.79"/><rect x="152.22" y="617.12" width="13.8" height="13.79"/><rect class="cls-2" x="152.22" y="589.53" width="13.8" height="13.8"/><rect class="cls-2" x="55.67" y="382.64" width="13.8" height="13.79"/><rect class="cls-2" x="41.88" y="382.64" width="13.79" height="13.79"/><rect class="cls-2" x="28.09" y="382.64" width="13.79" height="13.79"/><polygon class="cls-1" points="0.5 272.29 0.5 258.5 14.29 258.5 28.09 258.5 41.88 258.5 55.67 258.5 69.47 258.5 83.26 258.5 97.05 258.5 110.84 258.5 124.64 258.5 138.43 258.5 152.22 258.5 166.02 258.5 179.81 258.5 193.6 258.5 207.4 258.5 221.19 258.5 234.98 258.5 248.78 258.5 262.57 258.5 276.36 258.5 290.16 258.5 303.95 258.5 317.74 258.5 331.53 258.5 345.33 258.5 359.12 258.5 372.91 258.5 386.71 258.5 400.5 258.5 400.5 272.29 400.5 286.09 400.5 299.88 400.5 313.67 400.5 327.47 400.5 341.26 400.5 355.05 400.5 368.84 400.5 382.64 400.5 396.43 400.5 410.22 400.5 424.02 400.5 437.81 400.5 451.6 400.5 465.4 400.5 479.19 400.5 492.98 400.5 506.78 400.5 520.57 400.5 534.36 400.5 548.16 400.5 561.95 400.5 575.74 400.5 589.53 400.5 603.33 400.5 617.12 400.5 630.91 400.5 644.71 400.5 658.5 386.71 658.5 372.91 658.5 359.12 658.5 345.33 658.5 331.53 658.5 317.74 658.5 303.95 658.5 290.16 658.5 276.36 658.5 262.57 658.5 248.78 658.5 234.98 658.5 221.19 658.5 207.4 658.5 193.6 658.5 179.81 658.5 166.02 658.5 152.22 658.5 138.43 658.5 124.64 658.5 110.84 658.5 97.05 658.5 83.26 658.5 69.47 658.5 55.67 658.5 41.88 658.5 28.09 658.5 14.29 658.5 0.5 658.5 0.5 644.71 0.5 630.91 0.5 617.12 0.5 603.33 0.5 589.53 0.5 575.74 0.5 561.95 0.5 548.16 0.5 534.36 0.5 520.57 0.5 506.78 0.5 492.98 0.5 479.19 0.5 465.4 0.5 451.6 0.5 437.81 0.5 424.02 0.5 410.22 0.5 396.43 0.5 382.64 0.5 368.84 0.5 355.05 0.5 341.26 0.5 327.47 0.5 313.67 0.5 299.88 0.5 286.09 0.5 272.29"/><polyline class="cls-1" points="0.5 644.71 14.29 644.71 28.09 644.71 41.88 644.71 55.67 644.71 69.47 644.71 83.26 644.71 97.05 644.71 110.84 644.71 124.64 644.71 138.43 644.71 152.22 644.71 166.02 644.71 179.81 644.71 193.6 644.71 207.4 644.71 221.19 644.71 234.98 644.71 248.78 644.71 262.57 644.71 276.36 644.71 290.16 644.71 303.95 644.71 317.74 644.71 331.53 644.71 345.33 644.71 359.12 644.71 372.91 644.71 386.71 644.71 400.5 644.71"/><polyline class="cls-1" points="0.5 630.91 14.29 630.91 28.09 630.91 41.88 630.91 55.67 630.91 69.47 630.91 83.26 630.91 97.05 630.91 110.84 630.91 124.64 630.91 138.43 630.91 152.22 630.91 166.02 630.91 179.81 630.91 193.6 630.91 207.4 630.91 221.19 630.91 234.98 630.91 248.78 630.91 262.57 630.91 276.36 630.91 290.16 630.91 303.95 630.91 317.74 630.91 331.53 630.91 345.33 630.91 359.12 630.91 372.91 630.91 386.71 630.91 400.5 630.91"/><polyline class="cls-1" points="0.5 617.12 14.29 617.12 28.09 617.12 41.88 617.12 55.67 617.12 69.47 617.12 83.26 617.12 97.05 617.12 110.84 617.12 124.64 617.12 138.43 617.12 152.22 617.12 166.02 617.12 179.81 617.12 193.6 617.12 207.4 617.12 221.19 617.12 234.98 617.12 248.78 617.12 262.57 617.12 276.36 617.12 290.16 617.12 303.95 617.12 317.74 617.12 331.53 617.12 345.33 617.12 359.12 617.12 372.91 617.12 386.71 617.12 400.5 617.12"/><polyline class="cls-1" points="0.5 603.33 14.29 603.33 28.09 603.33 41.88 603.33 55.67 603.33 69.47 603.33 83.26 603.33 97.05 603.33 110.84 603.33 124.64 603.33 138.43 603.33 152.22 603.33 166.02 603.33 179.81 603.33 193.6 603.33 207.4 603.33 221.19 603.33 234.98 603.33 248.78 603.33 262.57 603.33 276.36 603.33 290.16 603.33 303.95 603.33 317.74 603.33 331.53 603.33 345.33 603.33 359.12 603.33 372.91 603.33 386.71 603.33 400.5 603.33"/><polyline class="cls-1" points="0.5 589.53 14.29 589.53 28.09 589.53 41.88 589.53 55.67 589.53 69.47 589.53 83.26 589.53 97.05 589.53 110.84 589.53 124.64 589.53 138.43 589.53 152.22 589.53 166.02 589.53 179.81 589.53 193.6 589.53 207.4 589.53 221.19 589.53 234.98 589.53 248.78 589.53 262.57 589.53 276.36 589.53 290.16 589.53 303.95 589.53 317.74 589.53 331.53 589.53 345.33 589.53 359.12 589.53 372.91 589.53 386.71 589.53 400.5 589.53"/><polyline class="cls-1" points="0.5 575.74 14.29 575.74 28.09 575.74 41.88 575.74 55.67 575.74 69.47 575.74 83.26 575.74 97.05 575.74 110.84 575.74 124.64 575.74 138.43 575.74 152.22 575.74 166.02 575.74 179.81 575.74 193.6 575.74 207.4 575.74 221.19 575.74 234.98 575.74 248.78 575.74 262.57 575.74 276.36 575.74 290.16 575.74 303.95 575.74 317.74 575.74 331.53 575.74 345.33 575.74 359.12 575.74 372.91 575.74 386.71 575.74 400.5 575.74"/><polyline class="cls-1" points="0.5 561.95 14.29 561.95 28.09 561.95 41.88 561.95 55.67 561.95 69.47 561.95 83.26 561.95 97.05 561.95 110.84 561.95 124.64 561.95 138.43 561.95 152.22 561.95 166.02 561.95 179.81 561.95 193.6 561.95 207.4 561.95 221.19 561.95 234.98 561.95 248.78 561.95 262.57 561.95 276.36 561.95 290.16 561.95 303.95 561.95 317.74 561.95 331.53 561.95 345.33 561.95 359.12 561.95 372.91 561.95 386.71 561.95 400.5 561.95"/><polyline class="cls-1" points="0.5 548.16 14.29 548.16 28.09 548.16 41.88 548.16 55.67 548.16 69.47 548.16 83.26 548.16 97.05 548.16 110.84 548.16 124.64 548.16 138.43 548.16 152.22 548.16 166.02 548.16 179.81 548.16 193.6 548.16 207.4 548.16 221.19 548.16 234.98 548.16 248.78 548.16 262.57 548.16 276.36 548.16 290.16 548.16 303.95 548.16 317.74 548.16 331.53 548.16 345.33 548.16 359.12 548.16 372.91 548.16 386.71 548.16 400.5 548.16"/><polyline class="cls-1" points="0.5 534.36 14.29 534.36 28.09 534.36 41.88 534.36 55.67 534.36 69.47 534.36 83.26 534.36 97.05 534.36 110.84 534.36 124.64 534.36 138.43 534.36 152.22 534.36 166.02 534.36 179.81 534.36 193.6 534.36 207.4 534.36 221.19 534.36 234.98 534.36 248.78 534.36 262.57 534.36 276.36 534.36 290.16 534.36 303.95 534.36 317.74 534.36 331.53 534.36 345.33 534.36 359.12 534.36 372.91 534.36 386.71 534.36 400.5 534.36"/><polyline class="cls-1" points="0.5 520.57 14.29 520.57 28.09 520.57 41.88 520.57 55.67 520.57 69.47 520.57 83.26 520.57 97.05 520.57 110.84 520.57 124.64 520.57 138.43 520.57 152.22 520.57 166.02 520.57 179.81 520.57 193.6 520.57 207.4 520.57 221.19 520.57 234.98 520.57 248.78 520.57 262.57 520.57 276.36 520.57 290.16 520.57 303.95 520.57 317.74 520.57 331.53 520.57 345.33 520.57 359.12 520.57 372.91 520.57 386.71 520.57 400.5 520.57"/><polyline class="cls-1" points="0.5 506.78 14.29 506.78 28.09 506.78 41.88 506.78 55.67 506.78 69.47 506.78 83.26 506.78 97.05 506.78 110.84 506.78 124.64 506.78 138.43 506.78 152.22 506.78 166.02 506.78 179.81 506.78 193.6 506.78 207.4 506.78 221.19 506.78 234.98 506.78 248.78 506.78 262.57 506.78 276.36 506.78 290.16 506.78 303.95 506.78 317.74 506.78 331.53 506.78 345.33 506.78 359.12 506.78 372.91 506.78 386.71 506.78 400.5 506.78"/><polyline class="cls-1" points="0.5 492.98 14.29 492.98 28.09 492.98 41.88 492.98 55.67 492.98 69.47 492.98 83.26 492.98 97.05 492.98 110.84 492.98 124.64 492.98 138.43 492.98 152.22 492.98 166.02 492.98 179.81 492.98 193.6 492.98 207.4 492.98 221.19 492.98 234.98 492.98 248.78 492.98 262.57 492.98 276.36 492.98 290.16 492.98 303.95 492.98 317.74 492.98 331.53 492.98 345.33 492.98 359.12 492.98 372.91 492.98 386.71 492.98 400.5 492.98"/><polyline class="cls-1" points="0.5 479.19 14.29 479.19 28.09 479.19 41.88 479.19 55.67 479.19 69.47 479.19 83.26 479.19 97.05 479.19 110.84 479.19 124.64 479.19 138.43 479.19 152.22 479.19 166.02 479.19 179.81 479.19 193.6 479.19 207.4 479.19 221.19 479.19 234.98 479.19 248.78 479.19 262.57 479.19 276.36 479.19 290.16 479.19 303.95 479.19 317.74 479.19 331.53 479.19 345.33 479.19 359.12 479.19 372.91 479.19 386.71 479.19 400.5 479.19"/><polyline class="cls-1" points="0.5 465.4 14.29 465.4 28.09 465.4 41.88 465.4 55.67 465.4 69.47 465.4 83.26 465.4 97.05 465.4 110.84 465.4 124.64 465.4 138.43 465.4 152.22 465.4 166.02 465.4 179.81 465.4 193.6 465.4 207.4 465.4 221.19 465.4 234.98 465.4 248.78 465.4 262.57 465.4 276.36 465.4 290.16 465.4 303.95 465.4 317.74 465.4 331.53 465.4 345.33 465.4 359.12 465.4 372.91 465.4 386.71 465.4 400.5 465.4"/><polyline class="cls-1" points="0.5 451.6 14.29 451.6 28.09 451.6 41.88 451.6 55.67 451.6 69.47 451.6 83.26 451.6 97.05 451.6 110.84 451.6 124.64 451.6 138.43 451.6 152.22 451.6 166.02 451.6 179.81 451.6 193.6 451.6 207.4 451.6 221.19 451.6 234.98 451.6 248.78 451.6 262.57 451.6 276.36 451.6 290.16 451.6 303.95 451.6 317.74 451.6 331.53 451.6 345.33 451.6 359.12 451.6 372.91 451.6 386.71 451.6 400.5 451.6"/><polyline class="cls-1" points="0.5 437.81 14.29 437.81 28.09 437.81 41.88 437.81 55.67 437.81 69.47 437.81 83.26 437.81 97.05 437.81 110.84 437.81 124.64 437.81 138.43 437.81 152.22 437.81 166.02 437.81 179.81 437.81 193.6 437.81 207.4 437.81 221.19 437.81 234.98 437.81 248.78 437.81 262.57 437.81 276.36 437.81 290.16 437.81 303.95 437.81 317.74 437.81 331.53 437.81 345.33 437.81 359.12 437.81 372.91 437.81 386.71 437.81 400.5 437.81"/><polyline class="cls-1" points="0.5 424.02 14.29 424.02 28.09 424.02 41.88 424.02 55.67 424.02 69.47 424.02 83.26 424.02 97.05 424.02 110.84 424.02 124.64 424.02 138.43 424.02 152.22 424.02 166.02 424.02 179.81 424.02 193.6 424.02 207.4 424.02 221.19 424.02 234.98 424.02 248.78 424.02 262.57 424.02 276.36 424.02 290.16 424.02 303.95 424.02 317.74 424.02 331.53 424.02 345.33 424.02 359.12 424.02 372.91 424.02 386.71 424.02 400.5 424.02"/><polyline class="cls-1" points="0.5 410.22 14.29 410.22 28.09 410.22 41.88 410.22 55.67 410.22 69.47 410.22 83.26 410.22 97.05 410.22 110.84 410.22 124.64 410.22 138.43 410.22 152.22 410.22 166.02 410.22 179.81 410.22 193.6 410.22 207.4 410.22 221.19 410.22 234.98 410.22 248.78 410.22 262.57 410.22 276.36 410.22 290.16 410.22 303.95 410.22 317.74 410.22 331.53 410.22 345.33 410.22 359.12 410.22 372.91 410.22 386.71 410.22 400.5 410.22"/><polyline class="cls-1" points="0.5 396.43 14.29 396.43 28.09 396.43 41.88 396.43 55.67 396.43 69.47 396.43 83.26 396.43 97.05 396.43 110.84 396.43 124.64 396.43 138.43 396.43 152.22 396.43 166.02 396.43 179.81 396.43 193.6 396.43 207.4 396.43 221.19 396.43 234.98 396.43 248.78 396.43 262.57 396.43 276.36 396.43 290.16 396.43 303.95 396.43 317.74 396.43 331.53 396.43 345.33 396.43 359.12 396.43 372.91 396.43 386.71 396.43 400.5 396.43"/><polyline class="cls-1" points="0.5 382.64 14.29 382.64 28.09 382.64 41.88 382.64 55.67 382.64 69.47 382.64 83.26 382.64 97.05 382.64 110.84 382.64 124.64 382.64 138.43 382.64 152.22 382.64 166.02 382.64 179.81 382.64 193.6 382.64 207.4 382.64 221.19 382.64 234.98 382.64 248.78 382.64 262.57 382.64 276.36 382.64 290.16 382.64 303.95 382.64 317.74 382.64 331.53 382.64 345.33 382.64 359.12 382.64 372.91 382.64 386.71 382.64 400.5 382.64"/><polyline class="cls-1" points="0.5 368.84 14.29 368.84 28.09 368.84 41.88 368.84 55.67 368.84 69.47 368.84 83.26 368.84 97.05 368.84 110.84 368.84 124.64 368.84 138.43 368.84 152.22 368.84 166.02 368.84 179.81 368.84 193.6 368.84 207.4 368.84 221.19 368.84 234.98 368.84 248.78 368.84 262.57 368.84 276.36 368.84 290.16 368.84 303.95 368.84 317.74 368.84 331.53 368.84 345.33 368.84 359.12 368.84 372.91 368.84 386.71 368.84 400.5 368.84"/><polyline class="cls-1" points="0.5 355.05 14.29 355.05 28.09 355.05 41.88 355.05 55.67 355.05 69.47 355.05 83.26 355.05 97.05 355.05 110.84 355.05 124.64 355.05 138.43 355.05 152.22 355.05 166.02 355.05 179.81 355.05 193.6 355.05 207.4 355.05 221.19 355.05 234.98 355.05 248.78 355.05 262.57 355.05 276.36 355.05 290.16 355.05 303.95 355.05 317.74 355.05 331.53 355.05 345.33 355.05 359.12 355.05 372.91 355.05 386.71 355.05 400.5 355.05"/><polyline class="cls-1" points="0.5 341.26 14.29 341.26 28.09 341.26 41.88 341.26 55.67 341.26 69.47 341.26 83.26 341.26 97.05 341.26 110.84 341.26 124.64 341.26 138.43 341.26 152.22 341.26 166.02 341.26 179.81 341.26 193.6 341.26 207.4 341.26 221.19 341.26 234.98 341.26 248.78 341.26 262.57 341.26 276.36 341.26 290.16 341.26 303.95 341.26 317.74 341.26 331.53 341.26 345.33 341.26 359.12 341.26 372.91 341.26 386.71 341.26 400.5 341.26"/><polyline class="cls-1" points="0.5 327.47 14.29 327.47 28.09 327.47 41.88 327.47 55.67 327.47 69.47 327.47 83.26 327.47 97.05 327.47 110.84 327.47 124.64 327.47 138.43 327.47 152.22 327.47 166.02 327.47 179.81 327.47 193.6 327.47 207.4 327.47 221.19 327.47 234.98 327.47 248.78 327.47 262.57 327.47 276.36 327.47 290.16 327.47 303.95 327.47 317.74 327.47 331.53 327.47 345.33 327.47 359.12 327.47 372.91 327.47 386.71 327.47 400.5 327.47"/><polyline class="cls-1" points="0.5 313.67 14.29 313.67 28.09 313.67 41.88 313.67 55.67 313.67 69.47 313.67 83.26 313.67 97.05 313.67 110.84 313.67 124.64 313.67 138.43 313.67 152.22 313.67 166.02 313.67 179.81 313.67 193.6 313.67 207.4 313.67 221.19 313.67 234.98 313.67 248.78 313.67 262.57 313.67 276.36 313.67 290.16 313.67 303.95 313.67 317.74 313.67 331.53 313.67 345.33 313.67 359.12 313.67 372.91 313.67 386.71 313.67 400.5 313.67"/><polyline class="cls-1" points="0.5 299.88 14.29 299.88 28.09 299.88 41.88 299.88 55.67 299.88 69.47 299.88 83.26 299.88 97.05 299.88 110.84 299.88 124.64 299.88 138.43 299.88 152.22 299.88 166.02 299.88 179.81 299.88 193.6 299.88 207.4 299.88 221.19 299.88 234.98 299.88 248.78 299.88 262.57 299.88 276.36 299.88 290.16 299.88 303.95 299.88 317.74 299.88 331.53 299.88 345.33 299.88 359.12 299.88 372.91 299.88 386.71 299.88 400.5 299.88"/><polyline class="cls-1" points="0.5 286.09 14.29 286.09 28.09 286.09 41.88 286.09 55.67 286.09 69.47 286.09 83.26 286.09 97.05 286.09 110.84 286.09 124.64 286.09 138.43 286.09 152.22 286.09 166.02 286.09 179.81 286.09 193.6 286.09 207.4 286.09 221.19 286.09 234.98 286.09 248.78 286.09 262.57 286.09 276.36 286.09 290.16 286.09 303.95 286.09 317.74 286.09 331.53 286.09 345.33 286.09 359.12 286.09 372.91 286.09 386.71 286.09 400.5 286.09"/><polyline class="cls-1" points="0.5 272.29 14.29 272.29 28.09 272.29 41.88 272.29 55.67 272.29 69.47 272.29 83.26 272.29 97.05 272.29 110.84 272.29 124.64 272.29 138.43 272.29 152.22 272.29 166.02 272.29 179.81 272.29 193.6 272.29 207.4 272.29 221.19 272.29 234.98 272.29 248.78 272.29 262.57 272.29 276.36 272.29 290.16 272.29 303.95 272.29 317.74 272.29 331.53 272.29 345.33 272.29 359.12 272.29 372.91 272.29 386.71 272.29 400.5 272.29"/><polyline class="cls-1" points="386.71 258.5 386.71 272.29 386.71 286.09 386.71 299.88 386.71 313.67 386.71 327.47 386.71 341.26 386.71 355.05 386.71 368.84 386.71 382.64 386.71 396.43 386.71 410.22 386.71 424.02 386.71 437.81 386.71 451.6 386.71 465.4 386.71 479.19 386.71 492.98 386.71 506.78 386.71 520.57 386.71 534.36 386.71 548.16 386.71 561.95 386.71 575.74 386.71 589.53 386.71 603.33 386.71 617.12 386.71 630.91 386.71 644.71 386.71 658.5"/><polyline class="cls-1" points="372.91 258.5 372.91 272.29 372.91 286.09 372.91 299.88 372.91 313.67 372.91 327.47 372.91 341.26 372.91 355.05 372.91 368.84 372.91 382.64 372.91 396.43 372.91 410.22 372.91 424.02 372.91 437.81 372.91 451.6 372.91 465.4 372.91 479.19 372.91 492.98 372.91 506.78 372.91 520.57 372.91 534.36 372.91 548.16 372.91 561.95 372.91 575.74 372.91 589.53 372.91 603.33 372.91 617.12 372.91 630.91 372.91 644.71 372.91 658.5"/><polyline class="cls-1" points="359.12 258.5 359.12 272.29 359.12 286.09 359.12 299.88 359.12 313.67 359.12 327.47 359.12 341.26 359.12 355.05 359.12 368.84 359.12 382.64 359.12 396.43 359.12 410.22 359.12 424.02 359.12 437.81 359.12 451.6 359.12 465.4 359.12 479.19 359.12 492.98 359.12 506.78 359.12 520.57 359.12 534.36 359.12 548.16 359.12 561.95 359.12 575.74 359.12 589.53 359.12 603.33 359.12 617.12 359.12 630.91 359.12 644.71 359.12 658.5"/><polyline class="cls-1" points="345.33 258.5 345.33 272.29 345.33 286.09 345.33 299.88 345.33 313.67 345.33 327.47 345.33 341.26 345.33 355.05 345.33 368.84 345.33 382.64 345.33 396.43 345.33 410.22 345.33 424.02 345.33 437.81 345.33 451.6 345.33 465.4 345.33 479.19 345.33 492.98 345.33 506.78 345.33 520.57 345.33 534.36 345.33 548.16 345.33 561.95 345.33 575.74 345.33 589.53 345.33 603.33 345.33 617.12 345.33 630.91 345.33 644.71 345.33 658.5"/><polyline class="cls-1" points="331.53 258.5 331.53 272.29 331.53 286.09 331.53 299.88 331.53 313.67 331.53 327.47 331.53 341.26 331.53 355.05 331.53 368.84 331.53 382.64 331.53 396.43 331.53 410.22 331.53 424.02 331.53 437.81 331.53 451.6 331.53 465.4 331.53 479.19 331.53 492.98 331.53 506.78 331.53 520.57 331.53 534.36 331.53 548.16 331.53 561.95 331.53 575.74 331.53 589.53 331.53 603.33 331.53 617.12 331.53 630.91 331.53 644.71 331.53 658.5"/><polyline class="cls-1" points="317.74 258.5 317.74 272.29 317.74 286.09 317.74 299.88 317.74 313.67 317.74 327.47 317.74 341.26 317.74 355.05 317.74 368.84 317.74 382.64 317.74 396.43 317.74 410.22 317.74 424.02 317.74 437.81 317.74 451.6 317.74 465.4 317.74 479.19 317.74 492.98 317.74 506.78 317.74 520.57 317.74 534.36 317.74 548.16 317.74 561.95 317.74 575.74 317.74 589.53 317.74 603.33 317.74 617.12 317.74 630.91 317.74 644.71 317.74 658.5"/><polyline class="cls-1" points="303.95 258.5 303.95 272.29 303.95 286.09 303.95 299.88 303.95 313.67 303.95 327.47 303.95 341.26 303.95 355.05 303.95 368.84 303.95 382.64 303.95 396.43 303.95 410.22 303.95 424.02 303.95 437.81 303.95 451.6 303.95 465.4 303.95 479.19 303.95 492.98 303.95 506.78 303.95 520.57 303.95 534.36 303.95 548.16 303.95 561.95 303.95 575.74 303.95 589.53 303.95 603.33 303.95 617.12 303.95 630.91 303.95 644.71 303.95 658.5"/><polyline class="cls-1" points="290.16 258.5 290.16 272.29 290.16 286.09 290.16 299.88 290.16 313.67 290.16 327.47 290.16 341.26 290.16 355.05 290.16 368.84 290.16 382.64 290.16 396.43 290.16 410.22 290.16 424.02 290.16 437.81 290.16 451.6 290.16 465.4 290.16 479.19 290.16 492.98 290.16 506.78 290.16 520.57 290.16 534.36 290.16 548.16 290.16 561.95 290.16 575.74 290.16 589.53 290.16 603.33 290.16 617.12 290.16 630.91 290.16 644.71 290.16 658.5"/><polyline class="cls-1" points="276.36 258.5 276.36 272.29 276.36 286.09 276.36 299.88 276.36 313.67 276.36 327.47 276.36 341.26 276.36 355.05 276.36 368.84 276.36 382.64 276.36 396.43 276.36 410.22 276.36 424.02 276.36 437.81 276.36 451.6 276.36 465.4 276.36 479.19 276.36 492.98 276.36 506.78 276.36 520.57 276.36 534.36 276.36 548.16 276.36 561.95 276.36 575.74 276.36 589.53 276.36 603.33 276.36 617.12 276.36 630.91 276.36 644.71 276.36 658.5"/><polyline class="cls-1" points="262.57 258.5 262.57 272.29 262.57 286.09 262.57 299.88 262.57 313.67 262.57 327.47 262.57 341.26 262.57 355.05 262.57 368.84 262.57 382.64 262.57 396.43 262.57 410.22 262.57 424.02 262.57 437.81 262.57 451.6 262.57 465.4 262.57 479.19 262.57 492.98 262.57 506.78 262.57 520.57 262.57 534.36 262.57 548.16 262.57 561.95 262.57 575.74 262.57 589.53 262.57 603.33 262.57 617.12 262.57 630.91 262.57 644.71 262.57 658.5"/><polyline class="cls-1" points="248.78 258.5 248.78 272.29 248.78 286.09 248.78 299.88 248.78 313.67 248.78 327.47 248.78 341.26 248.78 355.05 248.78 368.84 248.78 382.64 248.78 396.43 248.78 410.22 248.78 424.02 248.78 437.81 248.78 451.6 248.78 465.4 248.78 479.19 248.78 492.98 248.78 506.78 248.78 520.57 248.78 534.36 248.78 548.16 248.78 561.95 248.78 575.74 248.78 589.53 248.78 603.33 248.78 617.12 248.78 630.91 248.78 644.71 248.78 658.5"/><polyline class="cls-1" points="234.98 258.5 234.98 272.29 234.98 286.09 234.98 299.88 234.98 313.67 234.98 327.47 234.98 341.26 234.98 355.05 234.98 368.84 234.98 382.64 234.98 396.43 234.98 410.22 234.98 424.02 234.98 437.81 234.98 451.6 234.98 465.4 234.98 479.19 234.98 492.98 234.98 506.78 234.98 520.57 234.98 534.36 234.98 548.16 234.98 561.95 234.98 575.74 234.98 589.53 234.98 603.33 234.98 617.12 234.98 630.91 234.98 644.71 234.98 658.5"/><polyline class="cls-1" points="221.19 258.5 221.19 272.29 221.19 286.09 221.19 299.88 221.19 313.67 221.19 327.47 221.19 341.26 221.19 355.05 221.19 368.84 221.19 382.64 221.19 396.43 221.19 410.22 221.19 424.02 221.19 437.81 221.19 451.6 221.19 465.4 221.19 479.19 221.19 492.98 221.19 506.78 221.19 520.57 221.19 534.36 221.19 548.16 221.19 561.95 221.19 575.74 221.19 589.53 221.19 603.33 221.19 617.12 221.19 630.91 221.19 644.71 221.19 658.5"/><polyline class="cls-1" points="207.4 258.5 207.4 272.29 207.4 286.09 207.4 299.88 207.4 313.67 207.4 327.47 207.4 341.26 207.4 355.05 207.4 368.84 207.4 382.64 207.4 396.43 207.4 410.22 207.4 424.02 207.4 437.81 207.4 451.6 207.4 465.4 207.4 479.19 207.4 492.98 207.4 506.78 207.4 520.57 207.4 534.36 207.4 548.16 207.4 561.95 207.4 575.74 207.4 589.53 207.4 603.33 207.4 617.12 207.4 630.91 207.4 644.71 207.4 658.5"/><polyline class="cls-1" points="193.6 258.5 193.6 272.29 193.6 286.09 193.6 299.88 193.6 313.67 193.6 327.47 193.6 341.26 193.6 355.05 193.6 368.84 193.6 382.64 193.6 396.43 193.6 410.22 193.6 424.02 193.6 437.81 193.6 451.6 193.6 465.4 193.6 479.19 193.6 492.98 193.6 506.78 193.6 520.57 193.6 534.36 193.6 548.16 193.6 561.95 193.6 575.74 193.6 589.53 193.6 603.33 193.6 617.12 193.6 630.91 193.6 644.71 193.6 658.5"/><polyline class="cls-1" points="179.81 258.5 179.81 272.29 179.81 286.09 179.81 299.88 179.81 313.67 179.81 327.47 179.81 341.26 179.81 355.05 179.81 368.84 179.81 382.64 179.81 396.43 179.81 410.22 179.81 424.02 179.81 437.81 179.81 451.6 179.81 465.4 179.81 479.19 179.81 492.98 179.81 506.78 179.81 520.57 179.81 534.36 179.81 548.16 179.81 561.95 179.81 575.74 179.81 589.53 179.81 603.33 179.81 617.12 179.81 630.91 179.81 644.71 179.81 658.5"/><polyline class="cls-1" points="166.02 258.5 166.02 272.29 166.02 286.09 166.02 299.88 166.02 313.67 166.02 327.47 166.02 341.26 166.02 355.05 166.02 368.84 166.02 382.64 166.02 396.43 166.02 410.22 166.02 424.02 166.02 437.81 166.02 451.6 166.02 465.4 166.02 479.19 166.02 492.98 166.02 506.78 166.02 520.57 166.02 534.36 166.02 548.16 166.02 561.95 166.02 575.74 166.02 589.53 166.02 603.33 166.02 617.12 166.02 630.91 166.02 644.71 166.02 658.5"/><polyline class="cls-1" points="152.22 258.5 152.22 272.29 152.22 286.09 152.22 299.88 152.22 313.67 152.22 327.47 152.22 341.26 152.22 355.05 152.22 368.84 152.22 382.64 152.22 396.43 152.22 410.22 152.22 424.02 152.22 437.81 152.22 451.6 152.22 465.4 152.22 479.19 152.22 492.98 152.22 506.78 152.22 520.57 152.22 534.36 152.22 548.16 152.22 561.95 152.22 575.74 152.22 589.53 152.22 603.33 152.22 617.12 152.22 630.91 152.22 644.71 152.22 658.5"/><polyline class="cls-1" points="138.43 258.5 138.43 272.29 138.43 286.09 138.43 299.88 138.43 313.67 138.43 327.47 138.43 341.26 138.43 355.05 138.43 368.84 138.43 382.64 138.43 396.43 138.43 410.22 138.43 424.02 138.43 437.81 138.43 451.6 138.43 465.4 138.43 479.19 138.43 492.98 138.43 506.78 138.43 520.57 138.43 534.36 138.43 548.16 138.43 561.95 138.43 575.74 138.43 589.53 138.43 603.33 138.43 617.12 138.43 630.91 138.43 644.71 138.43 658.5"/><polyline class="cls-1" points="124.64 258.5 124.64 272.29 124.64 286.09 124.64 299.88 124.64 313.67 124.64 327.47 124.64 341.26 124.64 355.05 124.64 368.84 124.64 382.64 124.64 396.43 124.64 410.22 124.64 424.02 124.64 437.81 124.64 451.6 124.64 465.4 124.64 479.19 124.64 492.98 124.64 506.78 124.64 520.57 124.64 534.36 124.64 548.16 124.64 561.95 124.64 575.74 124.64 589.53 124.64 603.33 124.64 617.12 124.64 630.91 124.64 644.71 124.64 658.5"/><polyline class="cls-1" points="110.84 258.5 110.84 272.29 110.84 286.09 110.84 299.88 110.84 313.67 110.84 327.47 110.84 341.26 110.84 355.05 110.84 368.84 110.84 382.64 110.84 396.43 110.84 410.22 110.84 424.02 110.84 437.81 110.84 451.6 110.84 465.4 110.84 479.19 110.84 492.98 110.84 506.78 110.84 520.57 110.84 534.36 110.84 548.16 110.84 561.95 110.84 575.74 110.84 589.53 110.84 603.33 110.84 617.12 110.84 630.91 110.84 644.71 110.84 658.5"/><polyline class="cls-1" points="97.05 258.5 97.05 272.29 97.05 286.09 97.05 299.88 97.05 313.67 97.05 327.47 97.05 341.26 97.05 355.05 97.05 368.84 97.05 382.64 97.05 396.43 97.05 410.22 97.05 424.02 97.05 437.81 97.05 451.6 97.05 465.4 97.05 479.19 97.05 492.98 97.05 506.78 97.05 520.57 97.05 534.36 97.05 548.16 97.05 561.95 97.05 575.74 97.05 589.53 97.05 603.33 97.05 617.12 97.05 630.91 97.05 644.71 97.05 658.5"/><polyline class="cls-1" points="83.26 258.5 83.26 272.29 83.26 286.09 83.26 299.88 83.26 313.67 83.26 327.47 83.26 341.26 83.26 355.05 83.26 368.84 83.26 382.64 83.26 396.43 83.26 410.22 83.26 424.02 83.26 437.81 83.26 451.6 83.26 465.4 83.26 479.19 83.26 492.98 83.26 506.78 83.26 520.57 83.26 534.36 83.26 548.16 83.26 561.95 83.26 575.74 83.26 589.53 83.26 603.33 83.26 617.12 83.26 630.91 83.26 644.71 83.26 658.5"/><polyline class="cls-1" points="69.47 258.5 69.47 272.29 69.47 286.09 69.47 299.88 69.47 313.67 69.47 327.47 69.47 341.26 69.47 355.05 69.47 368.84 69.47 382.64 69.47 396.43 69.47 410.22 69.47 424.02 69.47 437.81 69.47 451.6 69.47 465.4 69.47 479.19 69.47 492.98 69.47 506.78 69.47 520.57 69.47 534.36 69.47 548.16 69.47 561.95 69.47 575.74 69.47 589.53 69.47 603.33 69.47 617.12 69.47 630.91 69.47 644.71 69.47 658.5"/><polyline class="cls-1" points="55.67 258.5 55.67 272.29 55.67 286.09 55.67 299.88 55.67 313.67 55.67 327.47 55.67 341.26 55.67 355.05 55.67 368.84 55.67 382.64 55.67 396.43 55.67 410.22 55.67 424.02 55.67 437.81 55.67 451.6 55.67 465.4 55.67 479.19 55.67 492.98 55.67 506.78 55.67 520.57 55.67 534.36 55.67 548.16 55.67 561.95 55.67 575.74 55.67 589.53 55.67 603.33 55.67 617.12 55.67 630.91 55.67 644.71 55.67 658.5"/><polyline class="cls-1" points="41.88 258.5 41.88 272.29 41.88 286.09 41.88 299.88 41.88 313.67 41.88 327.47 41.88 341.26 41.88 355.05 41.88 368.84 41.88 382.64 41.88 396.43 41.88 410.22 41.88 424.02 41.88 437.81 41.88 451.6 41.88 465.4 41.88 479.19 41.88 492.98 41.88 506.78 41.88 520.57 41.88 534.36 41.88 548.16 41.88 561.95 41.88 575.74 41.88 589.53 41.88 603.33 41.88 617.12 41.88 630.91 41.88 644.71 41.88 658.5"/><polyline class="cls-1" points="28.09 258.5 28.09 272.29 28.09 286.09 28.09 299.88 28.09 313.67 28.09 327.47 28.09 341.26 28.09 355.05 28.09 368.84 28.09 382.64 28.09 396.43 28.09 410.22 28.09 424.02 28.09 437.81 28.09 451.6 28.09 465.4 28.09 479.19 28.09 492.98 28.09 506.78 28.09 520.57 28.09 534.36 28.09 548.16 28.09 561.95 28.09 575.74 28.09 589.53 28.09 603.33 28.09 617.12 28.09 630.91 28.09 644.71 28.09 658.5"/><polyline class="cls-1" points="14.29 258.5 14.29 272.29 14.29 286.09 14.29 299.88 14.29 313.67 14.29 327.47 14.29 341.26 14.29 355.05 14.29 368.84 14.29 382.64 14.29 396.43 14.29 410.22 14.29 424.02 14.29 437.81 14.29 451.6 14.29 465.4 14.29 479.19 14.29 492.98 14.29 506.78 14.29 520.57 14.29 534.36 14.29 548.16 14.29 561.95 14.29 575.74 14.29 589.53 14.29 603.33 14.29 617.12 14.29 630.91 14.29 644.71 14.29 658.5"/><text class="cls-3" transform="translate(381.1 677.59)">{</text></g><g id="Layer_3" data-name="Layer 3"><text class="cls-4" transform="translate(1138.6 72.67)">0</text><text class="cls-4" transform="translate(1138.6 165.67)">1</text><text class="cls-4" transform="translate(1138.6 253.33)">2</text><text class="cls-4" transform="translate(1138.6 335)">3</text><text class="cls-4" transform="translate(1138.6 423)">4</text><text class="cls-4" transform="translate(1138.6 509.33)">5</text><text class="cls-4" transform="translate(1138.6 594.67)">6</text><text class="cls-4" transform="translate(1138.6 680.67)">7</text><text class="cls-4" transform="translate(1138.6 767)">8</text><text class="cls-4" transform="translate(1138.6 854)">9</text></g></svg>